<?xml version="1.0" encoding="UTF-8"?>
<svg width="800" height="600" viewBox="0 0 800 600" fill="none" xmlns="http://www.w3.org/2000/svg">
  <!-- Background Elements -->
  <circle cx="400" cy="300" r="250" fill="url(#gradient1)" opacity="0.1"/>
  <circle cx="400" cy="300" r="200" fill="url(#gradient2)" opacity="0.15"/>
  
  <!-- Abstract Connection Lines -->
  <path d="M200 200 Q400 100 600 200" stroke="url(#gradient3)" stroke-width="4" opacity="0.6"/>
  <path d="M200 400 Q400 500 600 400" stroke="url(#gradient3)" stroke-width="4" opacity="0.6"/>
  
  <!-- Central Communication Hub -->
  <circle cx="400" cy="300" r="80" fill="url(#gradient4)" opacity="0.8"/>
  <circle cx="400" cy="300" r="60" fill="url(#gradient5)" opacity="0.9"/>
  
  <!-- Orbiting Elements -->
  <circle cx="300" cy="200" r="20" fill="url(#gradient6)" opacity="0.7"/>
  <circle cx="500" cy="200" r="20" fill="url(#gradient6)" opacity="0.7"/>
  <circle cx="300" cy="400" r="20" fill="url(#gradient6)" opacity="0.7"/>
  <circle cx="500" cy="400" r="20" fill="url(#gradient6)" opacity="0.7"/>
  
  <!-- Connection Dots -->
  <circle cx="400" cy="300" r="8" fill="white"/>
  <circle cx="300" cy="200" r="6" fill="white"/>
  <circle cx="500" cy="200" r="6" fill="white"/>
  <circle cx="300" cy="400" r="6" fill="white"/>
  <circle cx="500" cy="400" r="6" fill="white"/>
  
  <!-- Gradients -->
  <defs>
    <linearGradient id="gradient1" x1="0" y1="0" x2="800" y2="600">
      <stop offset="0%" stop-color="#3B82F6"/>
      <stop offset="100%" stop-color="#8B5CF6"/>
    </linearGradient>
    <linearGradient id="gradient2" x1="0" y1="0" x2="800" y2="600">
      <stop offset="0%" stop-color="#8B5CF6"/>
      <stop offset="100%" stop-color="#3B82F6"/>
    </linearGradient>
    <linearGradient id="gradient3" x1="0" y1="0" x2="800" y2="0">
      <stop offset="0%" stop-color="#3B82F6"/>
      <stop offset="50%" stop-color="#8B5CF6"/>
      <stop offset="100%" stop-color="#3B82F6"/>
    </linearGradient>
    <linearGradient id="gradient4" x1="0" y1="0" x2="800" y2="600">
      <stop offset="0%" stop-color="#3B82F6"/>
      <stop offset="100%" stop-color="#8B5CF6"/>
    </linearGradient>
    <linearGradient id="gradient5" x1="0" y1="0" x2="800" y2="600">
      <stop offset="0%" stop-color="#8B5CF6"/>
      <stop offset="100%" stop-color="#3B82F6"/>
    </linearGradient>
    <linearGradient id="gradient6" x1="0" y1="0" x2="100" y2="100">
      <stop offset="0%" stop-color="#3B82F6"/>
      <stop offset="100%" stop-color="#8B5CF6"/>
    </linearGradient>
  </defs>
</svg> 