<svg xmlns="http://www.w3.org/2000/svg" width="360" height="360" viewBox="0 0 360 360" version="1.1"><path d="M 112 36.086 C 87.014 36.776, 81.995 37.579, 71.429 42.577 C 59.967 47.999, 48.662 58.902, 43.007 69.986 C 39.599 76.666, 36.923 87.622, 36.028 98.555 C 35.535 104.575, 35.276 144.825, 35.451 188 C 35.809 276.002, 35.682 274.314, 43.069 289.695 C 50.097 304.332, 63.197 315.734, 78.603 320.627 C 91.696 324.784, 101.511 325.154, 187.648 324.731 C 277.703 324.288, 274.661 324.510, 290 317.258 C 300.387 312.347, 312.112 300.593, 317.226 289.962 C 324.586 274.667, 324.500 275.967, 324.500 179.500 L 324.500 93.500 322.239 84.626 C 315.619 58.641, 298.600 42.620, 272 37.333 C 265.894 36.120, 252.510 35.805, 200 35.640 C 164.525 35.528, 124.925 35.729, 112 36.086 M 176.500 78.940 C 174.850 79.332, 172.536 80.171, 171.358 80.804 C 165.790 83.796, 161.204 93.100, 162.466 98.844 C 163.032 101.420, 162.281 101.966, 142.544 113.341 L 122.035 125.161 118.971 122.979 C 112.779 118.570, 103.178 119.149, 97.330 124.284 C 87.880 132.581, 89.141 146.441, 99.958 153.165 L 105 156.299 105 179 L 105 201.701 99.948 204.842 C 87.688 212.462, 88.300 229.582, 101.071 236.305 C 105.800 238.794, 114.488 238.213, 118.836 235.117 L 122.040 232.835 142.551 244.638 C 162.341 256.027, 163.041 256.536, 162.470 259.137 C 161.064 265.538, 166.520 275.316, 172.993 277.997 C 177.513 279.869, 186.966 278.872, 190.838 276.115 C 195.320 272.924, 197.998 267.199, 198.008 260.790 L 198.017 255.500 218.258 243.819 C 238.167 232.330, 238.533 232.168, 240.500 234.002 C 243.259 236.575, 247.397 238, 252.105 238 C 263.421 238, 272.376 225.963, 268.982 215.315 C 267.553 210.833, 261.753 204.406, 258.371 203.557 L 256 202.962 256 179.102 L 256 155.243 259.005 153.998 C 265.678 151.234, 270.801 142.081, 269.513 135.219 C 266.874 121.149, 251.764 115.436, 240 124.059 C 238.813 124.930, 234.280 122.725, 218.250 113.479 L 198 101.799 198 96.860 C 198 88.331, 192.793 81.123, 185.439 79.474 C 180.002 78.254, 179.509 78.224, 176.500 78.940 M 165.588 109.750 C 165.179 110.162, 156.289 115.456, 145.834 121.514 L 126.824 132.528 126.662 138.100 C 126.460 145.054, 122.642 151.131, 116.876 153.675 L 113 155.385 113 179.392 C 113 193.321, 113.371 203.001, 113.883 202.450 C 114.368 201.928, 126.571 181.025, 141.001 156 C 155.430 130.975, 167.435 110.162, 167.677 109.750 C 167.920 109.338, 167.716 109, 167.226 109 C 166.735 109, 165.998 109.338, 165.588 109.750 M 193 109.354 C 193 109.955, 245.175 200.362, 246.149 201.450 C 246.620 201.975, 246.986 191.918, 246.968 178.950 L 246.937 155.500 242.527 152.825 C 237.083 149.523, 234.005 143.924, 233.986 137.290 L 233.973 132.500 218.292 123.500 C 209.667 118.550, 200.448 113.253, 197.805 111.730 C 195.162 110.206, 193 109.137, 193 109.354 M 148.555 160.222 L 121.894 206.444 124.197 211.183 L 126.500 215.922 180.281 215.961 C 230.615 215.998, 234.103 215.888, 234.694 214.250 C 235.041 213.287, 236.181 211.265, 237.227 209.756 L 239.128 207.012 212.314 160.513 L 185.500 114.014 180.358 114.007 L 175.216 114 148.555 160.222 M 127.153 225.486 C 127.420 225.753, 136.558 231.121, 147.458 237.413 L 167.278 248.855 170.086 246.778 C 175.554 242.736, 185.213 242.879, 191.127 247.091 L 193.955 249.104 213.227 237.984 C 223.827 231.868, 232.928 226.445, 233.450 225.932 C 234.037 225.356, 213.839 225, 180.533 225 C 150.907 225, 126.885 225.219, 127.153 225.486" stroke="none" fill="#dc0474" fill-rule="evenodd"/><path d="M 0 180.003 L 0 360.005 180.250 359.753 L 360.500 359.500 360.753 179.750 L 361.005 0 180.503 0 L 0 0 0 180.003 M 0.489 180.500 C 0.489 279.500, 0.607 320.148, 0.750 270.829 C 0.893 221.510, 0.893 140.510, 0.750 90.829 C 0.607 41.148, 0.489 81.500, 0.489 180.500 M 112 36.086 C 87.014 36.776, 81.995 37.579, 71.429 42.577 C 59.967 47.999, 48.662 58.902, 43.007 69.986 C 39.599 76.666, 36.923 87.622, 36.028 98.555 C 35.535 104.575, 35.276 144.825, 35.451 188 C 35.809 276.002, 35.682 274.314, 43.069 289.695 C 50.097 304.332, 63.197 315.734, 78.603 320.627 C 91.696 324.784, 101.511 325.154, 187.648 324.731 C 277.703 324.288, 274.661 324.510, 290 317.258 C 300.387 312.347, 312.112 300.593, 317.226 289.962 C 324.586 274.667, 324.500 275.967, 324.500 179.500 L 324.500 93.500 322.239 84.626 C 315.619 58.641, 298.600 42.620, 272 37.333 C 265.894 36.120, 252.510 35.805, 200 35.640 C 164.525 35.528, 124.925 35.729, 112 36.086 M 176.500 78.940 C 174.850 79.332, 172.536 80.171, 171.358 80.804 C 165.790 83.796, 161.204 93.100, 162.466 98.844 C 163.032 101.420, 162.281 101.966, 142.544 113.341 L 122.035 125.161 118.971 122.979 C 112.779 118.570, 103.178 119.149, 97.330 124.284 C 87.880 132.581, 89.141 146.441, 99.958 153.165 L 105 156.299 105 179 L 105 201.701 99.948 204.842 C 87.688 212.462, 88.300 229.582, 101.071 236.305 C 105.800 238.794, 114.488 238.213, 118.836 235.117 L 122.040 232.835 142.551 244.638 C 162.341 256.027, 163.041 256.536, 162.470 259.137 C 161.064 265.538, 166.520 275.316, 172.993 277.997 C 177.513 279.869, 186.966 278.872, 190.838 276.115 C 195.320 272.924, 197.998 267.199, 198.008 260.790 L 198.017 255.500 218.258 243.819 C 238.167 232.330, 238.533 232.168, 240.500 234.002 C 243.259 236.575, 247.397 238, 252.105 238 C 263.421 238, 272.376 225.963, 268.982 215.315 C 267.553 210.833, 261.753 204.406, 258.371 203.557 L 256 202.962 256 179.102 L 256 155.243 259.005 153.998 C 265.678 151.234, 270.801 142.081, 269.513 135.219 C 266.874 121.149, 251.764 115.436, 240 124.059 C 238.813 124.930, 234.280 122.725, 218.250 113.479 L 198 101.799 198 96.860 C 198 88.331, 192.793 81.123, 185.439 79.474 C 180.002 78.254, 179.509 78.224, 176.500 78.940 M 165.588 109.750 C 165.179 110.162, 156.289 115.456, 145.834 121.514 L 126.824 132.528 126.662 138.100 C 126.460 145.054, 122.642 151.131, 116.876 153.675 L 113 155.385 113 179.392 C 113 193.321, 113.371 203.001, 113.883 202.450 C 114.368 201.928, 126.571 181.025, 141.001 156 C 155.430 130.975, 167.435 110.162, 167.677 109.750 C 167.920 109.338, 167.716 109, 167.226 109 C 166.735 109, 165.998 109.338, 165.588 109.750 M 193 109.354 C 193 109.955, 245.175 200.362, 246.149 201.450 C 246.620 201.975, 246.986 191.918, 246.968 178.950 L 246.937 155.500 242.527 152.825 C 237.083 149.523, 234.005 143.924, 233.986 137.290 L 233.973 132.500 218.292 123.500 C 209.667 118.550, 200.448 113.253, 197.805 111.730 C 195.162 110.206, 193 109.137, 193 109.354 M 148.555 160.222 L 121.894 206.444 124.197 211.183 L 126.500 215.922 180.281 215.961 C 230.615 215.998, 234.103 215.888, 234.694 214.250 C 235.041 213.287, 236.181 211.265, 237.227 209.756 L 239.128 207.012 212.314 160.513 L 185.500 114.014 180.358 114.007 L 175.216 114 148.555 160.222 M 127.153 225.486 C 127.420 225.753, 136.558 231.121, 147.458 237.413 L 167.278 248.855 170.086 246.778 C 175.554 242.736, 185.213 242.879, 191.127 247.091 L 193.955 249.104 213.227 237.984 C 223.827 231.868, 232.928 226.445, 233.450 225.932 C 234.037 225.356, 213.839 225, 180.533 225 C 150.907 225, 126.885 225.219, 127.153 225.486" stroke="none" fill="#f4f2f3" fill-rule="evenodd"/></svg>