<svg xmlns="http://www.w3.org/2000/svg" width="360" height="270" viewBox="0 0 360 270" version="1.1"><path d="M 0 135.003 L 0 270.005 180.250 269.753 L 360.500 269.500 360.754 134.750 L 361.007 -0 180.504 -0 L 0 0 0 135.003 M 0.486 135.500 C 0.486 209.750, 0.605 240.273, 0.750 203.328 C 0.895 166.383, 0.895 105.633, 0.750 68.328 C 0.605 31.023, 0.486 61.250, 0.486 135.500 M 317.521 19.694 C 311.656 28.568, 295.796 43.699, 284.500 51.197 C 264.714 64.329, 241.749 73.793, 220.500 77.571 C 212.005 79.081, 203.953 79.364, 167 79.451 C 124.568 79.551, 123.292 79.612, 115.026 81.905 C 95.649 87.280, 81.081 95.525, 69 107.954 C 37.922 139.927, 36.280 192.414, 65.678 214.131 C 72.653 219.284, 76.591 224.812, 78.104 231.574 C 79.596 238.239, 78.193 245.779, 74.433 251.313 L 71.926 255.003 76.713 251.960 C 89.544 243.803, 111.141 241.713, 148.500 245.012 C 201.290 249.674, 213.377 250.254, 231.248 248.982 C 265.304 246.558, 286.664 237.734, 304.640 218.664 C 320.164 202.195, 329.781 180.640, 334.636 151.437 C 336.829 138.245, 337.117 100.324, 335.144 84.500 C 332.313 61.795, 324.273 19.098, 322.096 15.208 C 321.589 14.300, 320.159 15.702, 317.521 19.694 M 34.500 220.662 C 18.459 229.118, 19.745 251.470, 36.591 257.030 C 53.823 262.717, 68.854 243.735, 59.381 228.248 C 54.355 220.032, 42.533 216.427, 34.500 220.662" stroke="none" fill="#f4f4f4" fill-rule="evenodd"/><path d="M 317.521 19.694 C 311.656 28.568, 295.796 43.699, 284.500 51.197 C 264.714 64.329, 241.749 73.793, 220.500 77.571 C 212.005 79.081, 203.953 79.364, 167 79.451 C 124.568 79.551, 123.292 79.612, 115.026 81.905 C 95.649 87.280, 81.081 95.525, 69 107.954 C 37.922 139.927, 36.280 192.414, 65.678 214.131 C 72.653 219.284, 76.591 224.812, 78.104 231.574 C 79.596 238.239, 78.193 245.779, 74.433 251.313 L 71.926 255.003 76.713 251.960 C 89.544 243.803, 111.141 241.713, 148.500 245.012 C 201.290 249.674, 213.377 250.254, 231.248 248.982 C 265.304 246.558, 286.664 237.734, 304.640 218.664 C 320.164 202.195, 329.781 180.640, 334.636 151.437 C 336.829 138.245, 337.117 100.324, 335.144 84.500 C 332.313 61.795, 324.273 19.098, 322.096 15.208 C 321.589 14.300, 320.159 15.702, 317.521 19.694 M 34.500 220.662 C 18.459 229.118, 19.745 251.470, 36.591 257.030 C 53.823 262.717, 68.854 243.735, 59.381 228.248 C 54.355 220.032, 42.533 216.427, 34.500 220.662" stroke="none" fill="#b0c125" fill-rule="evenodd"/></svg>