<svg xmlns="http://www.w3.org/2000/svg" width="360" height="216" viewBox="0 0 360 216" version="1.1"><path d="M 160.450 1.397 C 144.325 4.473, 133.441 9.059, 122.185 17.520 C 109.167 27.306, 97.706 45.415, 91.673 65.729 L 90.121 70.955 98.811 62.217 C 116.166 44.763, 134.396 39.552, 155.395 46.041 C 164.584 48.881, 169.772 52.692, 186.555 68.927 C 194.985 77.081, 204.946 86.058, 208.691 88.876 C 224.574 100.826, 242.302 106.749, 265.066 107.710 C 313.242 109.743, 345.331 87.141, 358.362 41.998 L 359.949 36.500 354.800 42.326 C 339.329 59.830, 320.200 67.471, 301.429 63.644 C 287.618 60.828, 282.927 57.779, 263.197 38.792 C 238.478 15.004, 225.546 6.948, 204.743 2.379 C 194.879 0.212, 169.599 -0.348, 160.450 1.397 M 72.814 109.014 C 57.300 111.464, 43.075 117.229, 32.185 125.481 C 19.018 135.460, 7.468 153.806, 1.638 174.002 L 0.051 179.500 5.200 173.674 C 24.327 152.033, 49.426 145.584, 71.786 156.566 C 77.854 159.546, 82.025 162.987, 96.733 177.140 C 121.068 200.557, 131.741 207.423, 152 212.690 C 168.638 217.016, 192.169 216.920, 209.613 212.455 C 217.826 210.353, 230.334 204.168, 237.815 198.510 C 250.870 188.635, 262.301 170.562, 268.327 150.271 L 269.879 145.045 261.138 153.861 C 246.186 168.941, 231.050 174.668, 213.174 172.009 C 199.242 169.936, 193.516 166.387, 174.530 148.059 C 155.816 129.993, 147.730 123.609, 136.448 117.993 C 123.569 111.583, 111.298 108.858, 93.500 108.456 C 85.250 108.269, 75.941 108.521, 72.814 109.014" stroke="none" fill="#04b4d4" fill-rule="evenodd"/><path d="M 0.009 108 L 0.027 216 83.763 215.910 C 159.221 215.829, 166.724 215.680, 159.655 214.403 C 143.904 211.557, 131.113 206.074, 118.410 196.723 C 115.137 194.313, 104.963 185.105, 95.801 176.261 C 81.974 162.912, 77.900 159.569, 71.822 156.584 C 49.649 145.694, 23.963 152.149, 5.642 173.218 C 0.266 179.400, -0.141 178.315, 3.610 167.810 C 14.703 136.740, 34.263 118.158, 63.623 110.797 C 71.194 108.899, 75.148 108.577, 90.500 108.603 C 106.810 108.632, 109.434 108.886, 118.448 111.310 C 130.354 114.512, 142.012 120.129, 151.385 127.181 C 155.171 130.030, 165.587 139.425, 174.530 148.059 C 193.516 166.387, 199.242 169.936, 213.174 172.009 C 231.050 174.668, 246.186 168.941, 261.138 153.861 L 269.879 145.045 268.327 150.271 C 257.197 187.749, 233.147 209.668, 197.417 214.896 C 193.850 215.418, 225.064 215.710, 276 215.631 L 360.500 215.500 360.759 107.750 L 361.017 -0 276.259 0.150 C 229.641 0.232, 192.850 0.473, 194.500 0.685 C 220.939 4.084, 235.557 12.192, 263.197 38.792 C 282.927 57.779, 287.618 60.828, 301.429 63.644 C 320.200 67.471, 339.329 59.830, 354.800 42.326 L 359.949 36.500 358.362 41.998 C 345.331 87.141, 313.242 109.743, 265.066 107.710 C 242.302 106.749, 224.574 100.826, 208.691 88.876 C 204.946 86.058, 194.985 77.081, 186.555 68.927 C 169.772 52.692, 164.584 48.881, 155.395 46.041 C 134.396 39.552, 116.166 44.763, 98.811 62.217 L 90.121 70.955 91.673 65.729 C 102.635 28.817, 125.022 7.897, 160.450 1.461 C 166.449 0.371, 155.018 0.167, 83.746 0.090 L -0.008 0 0.009 108 M 0.479 89.500 C 0.479 138.450, 0.601 158.329, 0.750 133.675 C 0.899 109.021, 0.899 68.971, 0.750 44.675 C 0.601 20.379, 0.479 40.550, 0.479 89.500 M 0.417 197.500 C 0.418 207.950, 0.566 212.089, 0.746 206.698 C 0.926 201.307, 0.925 192.757, 0.744 187.698 C 0.563 182.639, 0.416 187.050, 0.417 197.500" stroke="none" fill="#f3f4f4" fill-rule="evenodd"/></svg>